<?xml version="1.0" encoding="UTF-8" standalone="no"?>
<svg
   xmlns:dc="http://purl.org/dc/elements/1.1/"
   xmlns:cc="http://creativecommons.org/ns#"
   xmlns:rdf="http://www.w3.org/1999/02/22-rdf-syntax-ns#"
   xmlns:svg="http://www.w3.org/2000/svg"
   xmlns="http://www.w3.org/2000/svg"
   xmlns:sodipodi="http://sodipodi.sourceforge.net/DTD/sodipodi-0.dtd"
   xmlns:inkscape="http://www.inkscape.org/namespaces/inkscape"
   version="1.1"
   id="svg2"
   xml:space="preserve"
   width="56.693333"
   height="56.693333"
   viewBox="0 0 56.693333 56.693333"
   sodipodi:docname="guanajuato.svg"
   inkscape:version="1.0.1 (3bc2e813f5, 2020-09-07)"><metadata
     id="metadata8"><rdf:RDF><cc:Work
         rdf:about=""><dc:format>image/svg+xml</dc:format><dc:type
           rdf:resource="http://purl.org/dc/dcmitype/StillImage" /><dc:title /></cc:Work></rdf:RDF></metadata><defs
     id="defs6"><clipPath
       clipPathUnits="userSpaceOnUse"
       id="clipPath20"><path
         d="M 0,0 H 425 V 425 H 0 Z"
         id="path18"
         inkscape:connector-curvature="0" /></clipPath><clipPath
       clipPathUnits="userSpaceOnUse"
       id="clipPath26"><path
         d="M 425.195,212.598 C 425.195,95.1836 330.012,0 212.598,0 95.1836,0 0,95.1836 0,212.598 c 0,117.414 95.1836,212.597 212.598,212.597 117.414,0 212.597,-95.183 212.597,-212.597"
         id="path24"
         inkscape:connector-curvature="0" /></clipPath><radialGradient
       fx="0"
       fy="0"
       cx="0"
       cy="0"
       r="0.99854398"
       gradientUnits="userSpaceOnUse"
       gradientTransform="matrix(176.839,0,0,-176.839,329.516,317.669)"
       spreadMethod="pad"
       id="radialGradient32"><stop
         style="stop-opacity:1;stop-color:#5192d5"
         offset="0"
         id="stop28" /><stop
         style="stop-opacity:1;stop-color:#293e85"
         offset="1"
         id="stop30" /></radialGradient><clipPath
       clipPathUnits="userSpaceOnUse"
       id="clipPath76"><path
         d="m 159.441,185.539 c 0,-8.379 -3.839,-11.535 -8.859,-14.32 -8.484,-4.52 -21.75,-7.637 -36.223,-7.637 -45.7926,0 -66.4645,27.781 -66.4645,59.957 0,36.609 27.043,62.055 66.8515,62.055 16.031,0 30.301,-3.531 37.156,-12.735 3.942,-5.293 4.055,-16.394 -5.754,-22.589 -8.765,4.851 -17.96,8.402 -28.32,8.402 -30.3436,0 -35.2421,-23.231 -35.2538,-34.563 -0.0273,-18.718 9.3164,-28.187 19.8438,-31.793 11.496,-3.933 21.223,-1.48 24.852,0.477 v 17.949 h -20.614 c -0.773,1.403 -4.109,8.293 -3.027,16.34 0.555,4.129 3.137,9.441 11.117,9.441 h 32.563 c 9.004,0 12.132,-6.062 12.132,-12.031 v -38.953"
         id="path74"
         inkscape:connector-curvature="0" /></clipPath><linearGradient
       x1="0.25268301"
       y1="0"
       x2="1"
       y2="0"
       gradientUnits="userSpaceOnUse"
       gradientTransform="matrix(-65.8981,90.0054,138.875,101.678,70.1797,127.066)"
       spreadMethod="pad"
       id="linearGradient82"><stop
         style="stop-opacity:1;stop-color:#ffffff"
         offset="0"
         id="stop78" /><stop
         style="stop-opacity:1;stop-color:#9bd0f1"
         offset="1"
         id="stop80" /></linearGradient><clipPath
       clipPathUnits="userSpaceOnUse"
       id="clipPath92"><path
         d="m 380.543,224.301 c 0,-33.985 -27.859,-61.528 -62.23,-61.528 -34.372,0 -62.231,27.543 -62.231,61.528 0,33.984 27.859,61.531 62.231,61.531 34.371,0 62.23,-27.547 62.23,-61.531 z m -62.23,27.183 c -15.493,0 -28.051,-12.265 -28.051,-27.386 0,-15.125 12.558,-27.387 28.051,-27.387 15.492,0 28.05,12.262 28.05,27.387 0,15.121 -12.558,27.386 -28.05,27.386"
         id="path90"
         inkscape:connector-curvature="0" /></clipPath><linearGradient
       x1="0.085029401"
       y1="0"
       x2="0.74731702"
       y2="0"
       gradientUnits="userSpaceOnUse"
       gradientTransform="matrix(87.5146,-87.5146,-124.499,-124.499,336.806,330.309)"
       spreadMethod="pad"
       id="linearGradient98"><stop
         style="stop-opacity:1;stop-color:#9bd0f1"
         offset="0"
         id="stop94" /><stop
         style="stop-opacity:1;stop-color:#ffffff"
         offset="1"
         id="stop96" /></linearGradient><clipPath
       clipPathUnits="userSpaceOnUse"
       id="clipPath108"><path
         d="m 193.875,165.551 c 7.895,-1.723 19.852,-3 26.988,0.058 4.438,1.903 6.817,5.957 6.817,13.246 0,22.032 0,76.848 0,76.848 0,0 12.187,0 21.781,0 13.367,0 13.523,15.426 12.5,27.27 0,0 -72.57,0 -86.723,0 -14.074,0 -15.957,-13.246 -14.152,-27.27 h 32.789 v -90.152"
         id="path106"
         inkscape:connector-curvature="0" /></clipPath><linearGradient
       x1="0.0283216"
       y1="0"
       x2="0.74731702"
       y2="0"
       gradientUnits="userSpaceOnUse"
       gradientTransform="matrix(85.2415,-85.2415,-121.039,-121.039,234.787,338.434)"
       spreadMethod="pad"
       id="linearGradient114"><stop
         style="stop-opacity:1;stop-color:#9bd0f1"
         offset="0"
         id="stop110" /><stop
         style="stop-opacity:1;stop-color:#ffffff"
         offset="1"
         id="stop112" /></linearGradient><clipPath
       clipPathUnits="userSpaceOnUse"
       id="clipPath124"><path
         d="m 193.875,165.551 c 7.895,-1.723 19.852,-3 26.988,0.058 4.438,1.903 6.817,5.957 6.817,13.246 0,3.227 0,0.59 0,4.954 -9.192,0 -29.461,12.902 -33.805,25.695 v -43.953"
         id="path122"
         inkscape:connector-curvature="0" /></clipPath><linearGradient
       x1="0"
       y1="0"
       x2="1"
       y2="0"
       gradientUnits="userSpaceOnUse"
       gradientTransform="matrix(41.686,-30.1864,-44.3402,-61.2317,204.787,226.295)"
       spreadMethod="pad"
       id="linearGradient132"><stop
         style="stop-opacity:1;stop-color:#f35d29"
         offset="0"
         id="stop126" /><stop
         style="stop-opacity:1;stop-color:#f9ad30"
         offset="0.93933758"
         id="stop128" /><stop
         style="stop-opacity:1;stop-color:#f9ad30"
         offset="1"
         id="stop130" /></linearGradient><clipPath
       clipPathUnits="userSpaceOnUse"
       id="clipPath142"><path
         d="m 56.2734,255.715 c -5.414,-9.16 -8.3789,-20.055 -8.3789,-32.176 0,-32.176 20.6719,-59.957 66.4645,-59.957 14.473,0 27.739,3.117 36.223,7.637 0.801,0.445 1.57,0.898 2.301,1.383 -47.102,4.714 -85.5158,38.582 -96.6096,83.113"
         id="path140"
         inkscape:connector-curvature="0" /></clipPath><linearGradient
       x1="0"
       y1="0"
       x2="0.76687098"
       y2="0"
       gradientUnits="userSpaceOnUse"
       gradientTransform="matrix(111.551,0,0,-132.132,47.8921,275.714)"
       spreadMethod="pad"
       id="linearGradient150"><stop
         style="stop-opacity:1;stop-color:#10592f"
         offset="0"
         id="stop144" /><stop
         style="stop-opacity:1;stop-color:#6cc85c"
         offset="0.50635219"
         id="stop146" /><stop
         style="stop-opacity:1;stop-color:#6cc85c"
         offset="1"
         id="stop148" /></linearGradient><clipPath
       clipPathUnits="userSpaceOnUse"
       id="clipPath160"><path
         d="m 345.461,217.176 c 3.867,17.976 -7.438,33.187 -27.148,34.308 16.558,10.403 51.246,0 56.703,-27.214 2.39,-11.934 1.574,-22.477 -1.332,-28.075 -18.36,-35.343 -64.614,-44.117 -94.582,-19.672 35.929,0.04 61.574,18.418 66.359,40.653"
         id="path158"
         inkscape:connector-curvature="0" /></clipPath><linearGradient
       x1="0.13958199"
       y1="0"
       x2="0.650307"
       y2="0"
       gradientUnits="userSpaceOnUse"
       gradientTransform="matrix(58.522,-49.3451,-100.313,-118.968,353.6,291.097)"
       spreadMethod="pad"
       id="linearGradient168"><stop
         style="stop-opacity:1;stop-color:#b22c9d"
         offset="0"
         id="stop162" /><stop
         style="stop-opacity:1;stop-color:#e348ac"
         offset="0.47999386"
         id="stop164" /><stop
         style="stop-opacity:1;stop-color:#e348ac"
         offset="1"
         id="stop166" /></linearGradient></defs><sodipodi:namedview
     pagecolor="#ffffff"
     bordercolor="#666666"
     borderopacity="1"
     objecttolerance="10"
     gridtolerance="10"
     guidetolerance="10"
     inkscape:pageopacity="0"
     inkscape:pageshadow="2"
     inkscape:window-width="1366"
     inkscape:window-height="703"
     id="namedview4"
     showgrid="false"
     inkscape:zoom="4.162747"
     inkscape:cx="28.346666"
     inkscape:cy="28.346666"
     inkscape:window-x="0"
     inkscape:window-y="0"
     inkscape:window-maximized="1"
     inkscape:current-layer="g12"
     inkscape:document-rotation="0" /><g
     id="g10"
     inkscape:groupmode="layer"
     inkscape:label="ink_ext_XXXXXX"
     transform="matrix(1.3333333,0,0,-1.3333333,0,56.693333)"><g
       id="g12"
       transform="scale(0.1)"><g
         id="g102" /><g
         id="g1017"
         inkscape:export-xdpi="135.53"
         inkscape:export-ydpi="135.53"><g
           id="g14"><g
             clip-path="url(#clipPath20)"
             id="g16"><g
               clip-path="url(#clipPath26)"
               id="g22"><path
                 inkscape:connector-curvature="0"
                 id="path34"
                 style="fill:url(#radialGradient32);fill-opacity:1;fill-rule:nonzero;stroke:none"
                 d="m 192,0 v 1 h -8 v 1 h -6 v 1 h -7 v 1 h -4 v 1 h -4 v 1 h -4 v 1 h -4 v 1 h -4 v 1 h -3 v 1 h -3 v 1 h -3 v 1 h -3 v 1 h -2 v 1 h -3 v 1 h -3 v 1 h -2 v 1 h -2 v 1 h -2 v 1 h -2 v 1 h -3 v 1 h -2 v 1 h -2 v 1 h -2 v 1 h -2 v 1 h -2 v 1 h -1 v 1 h -2 v 1 h -2 v 1 h -1 v 1 h -2 v 1 h -2 v 1 h -1 v 1 h -2 v 1 h -2 v 1 h -1 v 1 h -2 v 1 h -1 v 1 h -1 v 1 h -2 v 1 h -1 v 1 h -1 v 1 h -2 v 1 h -1 v 1 h -1 v 1 h -2 v 1 h -1 v 1 h -1 v 1 h -2 v 1 h -1 v 1 h -1 v 1 h -1 v 1 h -1 v 1 h -1 v 1 h -1 v 1 h -1 v 1 h -1 v 1 h -2 v 1 h -1 v 1 h -1 v 1 h -1 v 1 h -1 v 1 h -1 v 1 h -1 v 1 h -1 v 1 h -1 v 1 h -1 v 2 h -1 v 1 h -1 v 1 h -1 v 1 h -1 v 1 h -1 v 1 h -1 v 1 h -1 v 1 h -1 v 1 h -1 v 2 h -1 v 1 h -1 v 1 h -1 v 2 h -1 v 1 h -1 v 1 h -1 v 2 h -1 v 1 h -1 v 1 h -1 v 2 h -1 v 1 h -1 v 1 h -1 v 2 h -1 v 1 h -1 v 2 h -1 v 2 h -1 v 1 h -1 v 2 h -1 v 2 h -1 v 1 h -1 v 2 h -1 v 2 h -1 v 1 h -1 v 2 h -1 v 2 h -1 v 2 h -1 v 2 h -1 v 2 h -1 v 3 h -1 v 2 h -1 v 2 h -1 v 2 h -1 v 2 h -1 v 3 h -1 v 3 h -1 v 2 h -1 v 3 h -1 v 3 h -1 v 3 H 9 v 3 H 8 v 4 H 7 v 4 H 6 v 4 H 5 v 4 H 4 v 4 H 3 v 7 H 2 v 6 H 1 v 8 H 0 v 41 h 1 v 8 h 1 v 6 h 1 v 7 h 1 v 5 h 1 v 3 h 1 v 4 h 1 v 4 h 1 v 4 h 1 v 4 h 1 v 2 h 1 v 3 h 1 v 3 h 1 v 2 h 1 v 3 h 1 v 3 h 1 v 2 h 1 v 3 h 1 v 2 h 1 v 2 h 1 v 2 h 1 v 2 h 1 v 2 h 1 v 2 h 1 v 2 h 1 v 2 h 1 v 2 h 1 v 1 h 1 v 2 h 1 v 2 h 1 v 1 h 1 v 2 h 1 v 2 h 1 v 1 h 1 v 2 h 1 v 1 h 1 v 2 h 1 v 1 h 1 v 2 h 1 v 1 h 1 v 1 h 1 v 2 h 1 v 1 h 1 v 1 h 1 v 2 h 1 v 1 h 1 v 1 h 1 v 2 h 1 v 1 h 1 v 1 h 1 v 1 h 1 v 1 h 1 v 1 h 1 v 1 h 1 v 1 h 1 v 2 h 1 v 1 h 1 v 1 h 1 v 1 h 1 v 1 h 1 v 1 h 1 v 1 h 1 v 1 h 1 v 1 h 1 v 1 h 1 v 1 h 1 v 1 h 1 v 1 h 1 v 1 h 2 v 1 h 1 v 1 h 1 v 1 h 1 v 1 h 1 v 1 h 1 v 1 h 1 v 1 h 1 v 1 h 2 v 1 h 1 v 1 h 1 v 1 h 2 v 1 h 1 v 1 h 1 v 1 h 2 v 1 h 1 v 1 h 1 v 1 h 2 v 1 h 1 v 1 h 1 v 1 h 2 v 1 h 2 v 1 h 1 v 1 h 2 v 1 h 2 v 1 h 1 v 1 h 2 v 1 h 2 v 1 h 1 v 1 h 2 v 1 h 2 v 1 h 2 v 1 h 2 v 1 h 2 v 1 h 2 v 1 h 2 v 1 h 2 v 1 h 2 v 1 h 2 v 1 h 3 v 1 h 2 v 1 h 3 v 1 h 3 v 1 h 3 v 1 h 2 v 1 h 3 v 1 h 3 v 1 h 4 v 1 h 4 v 1 h 4 v 1 h 4 v 1 h 4 v 1 h 7 v 1 h 6 v 1 h 7 v 1 h 45 v -1 h 7 v -1 h 7 v -1 h 6 v -1 h 4 v -1 h 4 v -1 h 4 v -1 h 4 v -1 h 4 v -1 h 3 v -1 h 3 v -1 h 3 v -1 h 2 v -1 h 3 v -1 h 3 v -1 h 2 v -1 h 3 v -1 h 2 v -1 h 2 v -1 h 2 v -1 h 2 v -1 h 2 v -1 h 2 v -1 h 2 v -1 h 2 v -1 h 2 v -1 h 2 v -1 h 2 v -1 h 1 v -1 h 2 v -1 h 2 v -1 h 1 v -1 h 2 v -1 h 1 v -1 h 2 v -1 h 2 v -1 h 1 v -1 h 1 v -1 h 2 v -1 h 1 v -1 h 1 v -1 h 2 v -1 h 1 v -1 h 2 v -1 h 1 v -1 h 1 v -1 h 2 v -1 h 1 v -1 h 1 v -1 h 1 v -1 h 1 v -1 h 1 v -1 h 1 v -1 h 2 v -1 h 1 v -1 h 1 v -1 h 1 v -1 h 1 v -1 h 1 v -1 h 1 v -1 h 1 v -1 h 1 v -1 h 1 v -1 h 1 v -1 h 1 v -1 h 1 v -1 h 1 v -1 h 1 v -1 h 1 v -1 h 1 v -1 h 1 v -2 h 1 v -1 h 1 v -1 h 1 v -1 h 1 v -1 h 1 v -1 h 1 v -1 h 1 v -2 h 1 v -1 h 1 v -1 h 1 v -2 h 1 v -1 h 1 v -2 h 1 v -1 h 1 v -1 h 1 v -2 h 1 v -1 h 1 v -1 h 1 v -2 h 1 v -2 h 1 v -1 h 1 v -2 h 1 v -1 h 1 v -2 h 1 v -2 h 1 v -1 h 1 v -2 h 1 v -2 h 1 v -2 h 1 v -2 h 1 v -2 h 1 v -2 h 1 v -2 h 1 v -2 h 1 v -2 h 1 v -2 h 1 v -2 h 1 v -3 h 1 v -2 h 1 v -3 h 1 v -3 h 1 v -2 h 1 v -3 h 1 v -3 h 1 v -3 h 1 v -4 h 1 v -4 h 1 v -4 h 1 v -4 h 1 v -4 h 1 v -6 h 1 v -7 h 1 v -7 h 1 v -45 h -1 v -7 h -1 v -6 h -1 v -7 h -1 v -4 h -1 v -4 h -1 v -4 h -1 v -4 h -1 v -4 h -1 v -3 h -1 v -3 h -1 v -2 h -1 v -3 h -1 v -3 h -1 v -3 h -1 v -2 h -1 v -3 h -1 v -2 h -1 v -2 h -1 v -2 h -1 v -2 h -1 v -2 h -1 v -2 h -1 v -2 h -1 v -2 h -1 v -2 h -1 v -2 h -1 v -1 h -1 v -2 h -1 v -2 h -1 v -1 h -1 v -2 h -1 v -2 h -1 v -1 h -1 v -2 h -1 v -2 h -1 v -1 h -1 v -1 h -1 v -2 h -1 v -1 h -1 v -1 h -1 v -2 h -1 v -1 h -1 v -1 h -1 v -2 h -1 v -1 h -1 v -1 h -1 v -2 h -1 v -1 h -1 v -1 h -1 v -1 h -1 v -1 h -1 v -1 h -1 v -1 h -1 v -1 h -1 v -2 h -1 v -1 h -1 v -1 h -1 v -1 h -1 v -1 h -1 v -1 h -1 v -1 h -1 v -1 h -1 v -1 h -1 v -1 h -1 v -1 h -1 v -1 h -1 v -1 h -1 v -1 h -2 v -1 h -1 v -1 h -1 v -1 h -1 v -1 h -1 v -1 h -1 v -1 h -1 v -1 h -1 v -1 h -2 v -1 h -1 v -1 h -1 v -1 h -2 v -1 h -1 v -1 h -1 v -1 h -2 v -1 h -1 v -1 h -1 v -1 h -2 v -1 h -1 v -1 h -2 v -1 h -1 v -1 h -2 v -1 h -1 v -1 h -2 v -1 h -2 v -1 h -1 v -1 h -2 v -1 h -2 v -1 h -1 v -1 h -2 v -1 h -2 v -1 h -2 v -1 h -2 v -1 h -2 v -1 h -2 v -1 h -2 v -1 h -2 v -1 h -2 v -1 h -3 v -1 h -2 v -1 h -3 v -1 h -3 v -1 h -2 v -1 h -3 v -1 h -3 v -1 h -2 V 9 h -4 V 8 h -4 V 7 h -4 V 6 h -4 V 5 h -3 V 4 h -5 V 3 h -7 V 2 h -6 V 1 h -8 V 0" /></g></g></g><path
           inkscape:connector-curvature="0"
           id="path36"
           style="fill:#ffffff;fill-opacity:1;fill-rule:nonzero;stroke:none"
           d="m 144.93,139.879 c -1.192,0 -2.309,-0.176 -3.328,-0.516 -1.008,-0.34 -1.903,-0.867 -2.653,-1.562 -0.758,-0.699 -1.351,-1.59 -1.777,-2.649 -0.43,-1.07 -0.645,-2.355 -0.645,-3.824 0,-1.328 0.2,-2.535 0.598,-3.582 0.391,-1.039 0.977,-1.945 1.727,-2.687 0.753,-0.739 1.691,-1.317 2.793,-1.711 1.105,-0.399 2.378,-0.598 3.789,-0.598 1.3,0 2.461,0.16 3.449,0.484 0.988,0.317 1.808,0.692 2.43,1.11 0.882,0.578 1.312,1.324 1.312,2.281 v 16.398 c 0,0.528 -0.059,0.957 -0.176,1.27 -0.113,0.293 -0.269,0.516 -0.484,0.68 -0.219,0.172 -0.496,0.285 -0.824,0.343 -0.758,0.133 -1.797,0.133 -2.715,-0.019 -0.313,-0.051 -0.567,-0.102 -0.758,-0.141 v -5.886 l -0.535,0.222 c -0.242,0.106 -0.567,0.196 -0.965,0.274 -0.402,0.074 -0.82,0.113 -1.238,0.113 z m 0.539,-13.25 c -1.258,0 -2.242,0.414 -2.922,1.226 -0.66,0.79 -0.996,1.961 -0.996,3.473 0,1.543 0.363,2.723 1.074,3.508 0.723,0.793 1.758,1.199 3.078,1.199 0.699,0 1.309,-0.16 1.82,-0.476 l 0.18,-0.11 v -7.988 l -0.129,-0.113 c -0.215,-0.192 -0.508,-0.364 -0.871,-0.504 -0.371,-0.145 -0.785,-0.215 -1.234,-0.215" /><path
           inkscape:connector-curvature="0"
           id="path38"
           style="fill:#ffffff;fill-opacity:1;fill-rule:nonzero;stroke:none"
           d="m 126.078,136.035 c 0.766,0 1.387,-0.199 1.848,-0.594 0.48,-0.41 0.722,-1.035 0.722,-1.863 v -8.164 c 0,-0.527 0.067,-0.949 0.192,-1.262 0.121,-0.293 0.285,-0.519 0.504,-0.687 0.215,-0.168 0.496,-0.285 0.824,-0.34 0.758,-0.137 1.805,-0.129 2.707,0 0.297,0.043 0.539,0.082 0.734,0.129 v 10.535 c 0,1.926 -0.629,3.391 -1.921,4.465 -1.29,1.078 -3.176,1.625 -5.61,1.625 -1.367,0 -2.625,-0.172 -3.742,-0.504 -1.109,-0.332 -2.039,-0.77 -2.762,-1.293 -0.41,-0.293 -0.738,-0.621 -0.969,-0.973 -0.214,-0.328 -0.32,-0.769 -0.32,-1.316 v -10.379 c 0,-0.527 0.063,-0.949 0.188,-1.262 0.121,-0.293 0.285,-0.519 0.504,-0.687 0.218,-0.168 0.496,-0.285 0.824,-0.34 0.762,-0.137 1.808,-0.129 2.707,0 0.293,0.043 0.543,0.082 0.73,0.129 v 11.902 l 0.157,0.11 c 0.347,0.257 0.773,0.453 1.257,0.582 0.465,0.125 0.942,0.187 1.426,0.187" /><path
           inkscape:connector-curvature="0"
           id="path40"
           style="fill:#ffffff;fill-opacity:1;fill-rule:nonzero;stroke:none"
           d="m 106.188,136.242 c 1.144,0 2.011,-0.156 2.644,-0.472 0.699,-0.352 1.066,-0.965 1.066,-1.774 v -0.582 l -4.746,-0.523 c -1.836,-0.196 -3.203,-0.7 -4.054,-1.493 -0.848,-0.785 -1.2621,-1.894 -1.2621,-3.39 0,-0.879 0.1721,-1.66 0.5121,-2.317 0.34,-0.656 0.832,-1.203 1.457,-1.625 0.644,-0.433 1.433,-0.765 2.332,-0.98 0.922,-0.223 1.972,-0.336 3.125,-0.336 2.566,0 4.57,0.434 5.961,1.289 0.414,0.258 0.773,0.563 1.07,0.91 0.266,0.313 0.398,0.715 0.398,1.227 v 7.75 c 0,1.023 -0.179,1.914 -0.535,2.656 -0.351,0.734 -0.863,1.352 -1.515,1.828 -0.661,0.488 -1.477,0.86 -2.426,1.102 -1.594,0.402 -3.5,0.48 -5.68,0.195 -0.847,-0.109 -1.594,-0.289 -2.215,-0.531 -0.507,-0.219 -0.894,-0.492 -1.132,-0.797 -0.227,-0.289 -0.34,-0.691 -0.34,-1.203 0,-0.399 0.09,-0.797 0.265,-1.168 0.133,-0.285 0.289,-0.508 0.461,-0.676 0.61,0.242 1.293,0.453 2.035,0.625 0.836,0.188 1.704,0.285 2.579,0.285 z m 1.074,-9.961 c -0.93,0 -1.59,0.168 -2.012,0.52 -0.437,0.367 -0.656,0.844 -0.656,1.418 0,0.594 0.273,1.066 0.797,1.363 0.453,0.258 1.027,0.414 1.707,0.465 l 2.836,0.246 v -3.391 l -0.18,-0.113 c -0.274,-0.168 -0.649,-0.293 -1.164,-0.383 -0.477,-0.082 -0.926,-0.125 -1.328,-0.125" /><path
           inkscape:connector-curvature="0"
           id="path42"
           style="fill:#ffffff;fill-opacity:1;fill-rule:nonzero;stroke:none"
           d="m 95.582,139.844 c -0.6289,0 -1.2656,-0.051 -1.8906,-0.153 -0.625,-0.097 -1.2422,-0.238 -1.832,-0.421 -0.5938,-0.18 -1.1524,-0.391 -1.6524,-0.618 -0.4961,-0.226 -0.914,-0.484 -1.2461,-0.761 -0.3164,-0.266 -0.5625,-0.567 -0.7304,-0.899 -0.1602,-0.324 -0.2422,-0.73 -0.2422,-1.199 v -10.379 c 0,-0.527 0.0625,-0.949 0.1914,-1.262 0.1211,-0.293 0.2851,-0.519 0.5,-0.687 0.2226,-0.168 0.5,-0.285 0.8281,-0.34 0.7578,-0.137 1.8047,-0.129 2.707,0 0.293,0.043 0.5391,0.082 0.7305,0.129 v 11.738 l 0.2149,0.106 c 0.3125,0.148 0.6953,0.277 1.1328,0.39 0.4218,0.102 0.8711,0.203 1.3515,0.297 0.4805,0.094 0.9805,0.164 1.4844,0.211 0.418,0.039 0.832,0.063 1.2422,0.07 0.082,0.176 0.1523,0.372 0.2109,0.575 0.0782,0.277 0.1172,0.558 0.1172,0.847 0,0.844 -0.2539,1.426 -0.7734,1.782 -0.5586,0.382 -1.3477,0.574 -2.3438,0.574" /><path
           inkscape:connector-curvature="0"
           id="path44"
           style="fill:#ffffff;fill-opacity:1;fill-rule:nonzero;stroke:none"
           d="m 77.0391,144.098 c -1.4375,0 -2.8516,-0.227 -4.2071,-0.672 -1.3515,-0.446 -2.5625,-1.125 -3.6054,-2.02 -1.0469,-0.894 -1.8946,-2.035 -2.5313,-3.386 -0.6367,-1.348 -0.957,-2.961 -0.957,-4.786 0,-1.738 0.2969,-3.281 0.8789,-4.589 0.5781,-1.301 1.3789,-2.407 2.375,-3.274 0.9961,-0.875 2.1914,-1.531 3.5508,-1.969 1.8789,-0.593 3.9922,-0.797 6.2187,-0.55 0.5899,0.066 1.168,0.16 1.7227,0.285 0.5469,0.125 1.0547,0.269 1.5039,0.437 0.4492,0.164 0.8242,0.336 1.1133,0.504 0.4882,0.293 0.8476,0.598 1.0625,0.899 0.1992,0.277 0.3007,0.742 0.3007,1.371 v 7.058 c 0,0.598 -0.1445,1.035 -0.4492,1.348 -0.2968,0.305 -0.7187,0.453 -1.2929,0.453 h -5.6836 c -0.4844,0 -0.8633,-0.144 -1.1641,-0.441 -0.293,-0.293 -0.4414,-0.809 -0.4414,-1.532 0,-0.421 0.0586,-0.832 0.168,-1.211 0.0859,-0.281 0.1718,-0.527 0.2617,-0.73 h 3.7422 v -3.848 l -0.1875,-0.109 c -0.2383,-0.137 -0.5547,-0.25 -0.9766,-0.352 -0.4101,-0.097 -0.8789,-0.148 -1.4023,-0.148 -0.8086,0 -1.5782,0.129 -2.2852,0.387 -0.7266,0.261 -1.3711,0.66 -1.9219,1.191 -0.5547,0.531 -0.9961,1.215 -1.3203,2.035 -0.3164,0.813 -0.4804,1.781 -0.4804,2.887 0,2.055 0.5976,3.695 1.7812,4.871 1.1797,1.172 2.7813,1.77 4.7617,1.77 1.1016,0 2.1016,-0.176 2.9883,-0.528 0.75,-0.301 1.3984,-0.605 1.9414,-0.918 0.2578,0.211 0.5,0.473 0.7109,0.793 0.25,0.371 0.375,0.824 0.375,1.348 0,0.992 -0.5468,1.785 -1.6757,2.422 -1.1836,0.668 -2.8243,1.004 -4.875,1.004" /><path
           inkscape:connector-curvature="0"
           id="path46"
           style="fill:#ffffff;fill-opacity:1;fill-rule:nonzero;stroke:none"
           d="m 163.609,139.879 c -1.007,0 -2.007,-0.164 -2.976,-0.484 -0.953,-0.313 -1.817,-0.813 -2.559,-1.477 -0.738,-0.664 -1.347,-1.531 -1.804,-2.57 -0.461,-1.043 -0.692,-2.313 -0.692,-3.774 0,-1.492 0.231,-2.801 0.695,-3.906 0.457,-1.094 1.094,-2.016 1.887,-2.734 0.801,-0.723 1.75,-1.274 2.828,-1.633 1.742,-0.586 3.723,-0.711 6.032,-0.352 0.847,0.133 1.621,0.387 2.296,0.758 0.821,0.438 1.215,1.09 1.215,1.984 0,0.395 -0.101,0.762 -0.316,1.125 -0.172,0.286 -0.371,0.52 -0.598,0.707 -0.508,-0.285 -1.137,-0.543 -1.875,-0.761 -1.781,-0.524 -3.965,-0.543 -5.515,0.234 -0.856,0.426 -1.43,1.078 -1.707,1.938 l -0.133,0.421 8.754,1.344 c 0.679,0.106 1.207,0.34 1.574,0.696 0.351,0.343 0.523,0.843 0.523,1.527 0,1.004 -0.187,1.941 -0.554,2.793 -0.371,0.848 -0.895,1.582 -1.559,2.187 -0.668,0.61 -1.477,1.098 -2.402,1.446 -0.926,0.351 -1.973,0.531 -3.114,0.531 z m -3.539,-7.41 0.028,0.476 c 0.023,0.403 0.105,0.801 0.238,1.188 0.141,0.402 0.352,0.769 0.629,1.094 0.277,0.324 0.644,0.597 1.086,0.804 0.445,0.207 0.969,0.313 1.558,0.313 0.938,0 1.668,-0.274 2.168,-0.813 0.477,-0.519 0.758,-1.051 0.836,-1.586 l 0.055,-0.367 -6.598,-1.109" /><path
           inkscape:connector-curvature="0"
           id="path48"
           style="fill:#ffffff;fill-opacity:1;fill-rule:nonzero;stroke:none"
           d="m 174.434,123.301 h 10.988 c 0.48,0 0.848,0.14 1.125,0.422 0.273,0.281 0.414,0.781 0.414,1.484 0,0.418 -0.059,0.813 -0.168,1.164 -0.086,0.274 -0.176,0.508 -0.262,0.703 h -7.156 l 6.156,7.606 c 0.289,0.363 0.539,0.761 0.742,1.187 0.188,0.403 0.282,0.801 0.282,1.207 0,0.492 -0.094,0.938 -0.282,1.324 -0.168,0.344 -0.39,0.657 -0.668,0.926 h -10.449 c -0.48,0 -0.843,-0.136 -1.125,-0.422 -0.273,-0.281 -0.41,-0.781 -0.41,-1.484 0,-0.422 0.055,-0.813 0.168,-1.164 0.082,-0.27 0.172,-0.504 0.258,-0.703 h 6.762 l -6.301,-7.61 c -0.289,-0.363 -0.539,-0.765 -0.738,-1.183 -0.188,-0.399 -0.286,-0.801 -0.286,-1.207 0,-0.492 0.094,-0.938 0.282,-1.321 0.172,-0.351 0.394,-0.664 0.668,-0.929" /><path
           inkscape:connector-curvature="0"
           id="path50"
           style="fill:#ffffff;fill-opacity:1;fill-rule:nonzero;stroke:none"
           d="m 195.152,136.242 c 1.145,0 2.012,-0.156 2.645,-0.472 0.699,-0.352 1.066,-0.965 1.066,-1.774 v -0.582 l -4.746,-0.523 c -1.84,-0.196 -3.203,-0.7 -4.058,-1.493 -0.848,-0.785 -1.258,-1.894 -1.258,-3.39 0,-0.879 0.172,-1.66 0.512,-2.317 0.339,-0.656 0.832,-1.203 1.457,-1.625 0.644,-0.433 1.429,-0.765 2.332,-0.98 0.918,-0.223 1.968,-0.336 3.125,-0.336 2.566,0 4.57,0.434 5.957,1.289 0.414,0.258 0.773,0.563 1.074,0.91 0.265,0.313 0.398,0.715 0.398,1.227 v 7.75 c 0,1.023 -0.183,1.914 -0.535,2.656 -0.351,0.734 -0.863,1.352 -1.516,1.828 -0.664,0.488 -1.48,0.86 -2.425,1.102 -1.594,0.402 -3.504,0.48 -5.68,0.195 -0.848,-0.109 -1.594,-0.289 -2.215,-0.531 -0.512,-0.219 -0.898,-0.492 -1.133,-0.797 -0.226,-0.289 -0.343,-0.691 -0.343,-1.203 0,-0.399 0.089,-0.797 0.265,-1.168 0.137,-0.285 0.293,-0.508 0.465,-0.676 0.609,0.242 1.289,0.453 2.035,0.625 0.836,0.188 1.703,0.285 2.578,0.285 z m 1.075,-9.961 c -0.93,0 -1.59,0.168 -2.012,0.52 -0.438,0.367 -0.66,0.844 -0.66,1.418 0,0.594 0.277,1.066 0.797,1.363 0.457,0.258 1.031,0.414 1.711,0.465 l 2.835,0.246 v -3.391 l -0.179,-0.113 c -0.274,-0.168 -0.653,-0.293 -1.164,-0.383 -0.477,-0.082 -0.926,-0.125 -1.328,-0.125" /><path
           inkscape:connector-curvature="0"
           id="path52"
           style="fill:#ffffff;fill-opacity:1;fill-rule:nonzero;stroke:none"
           d="m 221,139.879 c -1.187,0 -2.309,-0.176 -3.328,-0.516 -1.008,-0.34 -1.902,-0.867 -2.656,-1.562 -0.75,-0.699 -1.348,-1.59 -1.77,-2.649 -0.43,-1.07 -0.648,-2.355 -0.648,-3.824 0,-1.328 0.199,-2.535 0.593,-3.582 0.399,-1.039 0.977,-1.945 1.735,-2.687 0.75,-0.739 1.687,-1.317 2.789,-1.711 1.105,-0.399 2.379,-0.598 3.793,-0.598 1.297,0 2.457,0.16 3.449,0.484 0.988,0.317 1.805,0.692 2.426,1.11 0.887,0.578 1.316,1.324 1.316,2.281 v 16.398 c 0,0.524 -0.062,0.954 -0.179,1.274 -0.11,0.289 -0.27,0.512 -0.485,0.676 -0.219,0.172 -0.496,0.285 -0.824,0.343 -0.758,0.133 -1.797,0.133 -2.715,-0.019 -0.308,-0.051 -0.562,-0.098 -0.758,-0.141 v -5.886 l -0.531,0.222 c -0.246,0.106 -0.566,0.196 -0.965,0.274 -0.402,0.074 -0.824,0.113 -1.242,0.113 z m 0.539,-13.25 c -1.258,0 -2.238,0.414 -2.922,1.226 -0.66,0.79 -0.992,1.961 -0.992,3.473 0,1.547 0.359,2.727 1.074,3.508 0.723,0.793 1.758,1.199 3.074,1.199 0.696,0 1.309,-0.16 1.821,-0.476 l 0.179,-0.11 v -7.988 l -0.125,-0.113 c -0.214,-0.192 -0.507,-0.364 -0.875,-0.504 -0.367,-0.145 -0.785,-0.215 -1.234,-0.215" /><path
           inkscape:connector-curvature="0"
           id="path54"
           style="fill:#ffffff;fill-opacity:1;fill-rule:nonzero;stroke:none"
           d="m 239.684,139.879 c -1.008,0 -2.012,-0.164 -2.977,-0.484 -0.957,-0.317 -1.816,-0.813 -2.559,-1.477 -0.742,-0.664 -1.347,-1.531 -1.808,-2.57 -0.457,-1.043 -0.692,-2.313 -0.692,-3.774 0,-1.488 0.235,-2.801 0.696,-3.906 0.457,-1.094 1.097,-2.016 1.89,-2.734 0.801,-0.723 1.75,-1.274 2.829,-1.633 1.742,-0.586 3.722,-0.707 6.027,-0.352 0.851,0.133 1.625,0.387 2.301,0.758 0.816,0.438 1.214,1.09 1.214,1.984 0,0.395 -0.105,0.762 -0.32,1.125 -0.168,0.286 -0.371,0.52 -0.597,0.707 -0.504,-0.285 -1.133,-0.539 -1.875,-0.761 -1.778,-0.524 -3.961,-0.543 -5.516,0.234 -0.852,0.426 -1.426,1.078 -1.703,1.938 l -0.137,0.421 8.754,1.344 c 0.676,0.106 1.211,0.34 1.574,0.696 0.348,0.339 0.528,0.851 0.528,1.527 0,1.004 -0.188,1.941 -0.559,2.793 -0.367,0.844 -0.895,1.582 -1.555,2.187 -0.672,0.61 -1.48,1.098 -2.402,1.446 -0.93,0.351 -1.977,0.531 -3.113,0.531 z m -3.543,-7.41 0.027,0.476 c 0.027,0.403 0.105,0.801 0.242,1.188 0.137,0.402 0.348,0.769 0.625,1.094 0.285,0.324 0.649,0.597 1.086,0.804 0.445,0.207 0.969,0.313 1.563,0.313 0.937,0 1.664,-0.274 2.168,-0.813 0.476,-0.515 0.753,-1.051 0.836,-1.586 l 0.054,-0.367 -6.601,-1.109" /><path
           inkscape:connector-curvature="0"
           id="path56"
           style="fill:#ffffff;fill-opacity:1;fill-rule:nonzero;stroke:none"
           d="m 272.605,137.07 h 0.833 l 0.015,-0.359 c 0.067,-1.344 0.121,-3.047 0.152,-5.063 0.036,-2.007 0.122,-4.281 0.25,-6.765 0.04,-0.738 0.282,-1.215 0.743,-1.449 0.523,-0.27 1.191,-0.407 1.976,-0.407 0.614,0 1.121,0.047 1.504,0.141 0.309,0.078 0.61,0.195 0.895,0.348 -0.02,0.535 -0.063,1.242 -0.121,2.136 -0.067,1.02 -0.153,2.149 -0.25,3.383 l -0.321,3.856 c -0.113,1.336 -0.226,2.605 -0.336,3.8 -0.113,1.2 -0.222,2.278 -0.32,3.231 -0.102,0.937 -0.195,1.644 -0.281,2.098 -0.094,0.503 -0.422,0.882 -1.004,1.164 -0.641,0.308 -1.488,0.464 -2.527,0.464 -0.618,0 -1.18,-0.058 -1.676,-0.179 -0.43,-0.102 -0.789,-0.227 -1.078,-0.364 -0.434,-1.199 -0.914,-2.675 -1.422,-4.394 -0.539,-1.809 -1.078,-3.676 -1.614,-5.613 l -0.078,-0.278 h -0.742 l -0.691,2.297 c -0.223,0.746 -0.449,1.5 -0.688,2.258 -0.234,0.762 -0.469,1.496 -0.703,2.211 -0.234,0.707 -0.453,1.344 -0.652,1.891 -0.285,0.777 -0.715,1.316 -1.313,1.652 -0.609,0.344 -1.488,0.519 -2.605,0.519 -1.028,0 -1.824,-0.16 -2.363,-0.468 -0.594,-0.336 -0.872,-0.594 -0.997,-0.766 l -0.972,-17.539 c 0,-0.695 0.211,-1.164 0.64,-1.418 0.489,-0.289 1.196,-0.43 2.11,-0.43 0.449,0 0.902,0.039 1.347,0.114 0.332,0.054 0.61,0.121 0.844,0.191 0.059,1.215 0.106,2.328 0.137,3.34 0.035,1.082 0.055,2.148 0.066,3.211 0.012,1.058 0.035,2.152 0.071,3.273 0.031,1.121 0.082,2.364 0.152,3.731 l 0.016,0.359 h 0.836 l 0.066,-0.293 c 0.219,-0.926 0.535,-2.027 0.934,-3.277 0.406,-1.258 0.921,-2.903 1.55,-4.934 0.125,-0.394 0.387,-0.668 0.805,-0.832 0.477,-0.187 1.102,-0.281 1.859,-0.281 0.567,0 1.063,0.066 1.481,0.203 0.367,0.121 0.672,0.273 0.914,0.461 0.582,2.035 1.09,3.758 1.516,5.121 0.421,1.344 0.75,2.477 0.972,3.371 l 0.07,0.285" /><path
           inkscape:connector-curvature="0"
           id="path58"
           style="fill:#ffffff;fill-opacity:1;fill-rule:nonzero;stroke:none"
           d="m 289.566,139.879 c -1.007,0 -2.007,-0.164 -2.976,-0.484 -0.957,-0.317 -1.817,-0.813 -2.555,-1.477 -0.742,-0.664 -1.351,-1.531 -1.808,-2.57 -0.461,-1.043 -0.696,-2.313 -0.696,-3.774 0,-1.488 0.235,-2.801 0.699,-3.906 0.458,-1.094 1.094,-2.016 1.887,-2.734 0.801,-0.723 1.75,-1.274 2.828,-1.633 1.743,-0.586 3.723,-0.707 6.028,-0.352 0.851,0.133 1.625,0.387 2.3,0.758 0.821,0.438 1.215,1.09 1.215,1.984 0,0.395 -0.105,0.762 -0.32,1.125 -0.168,0.286 -0.367,0.52 -0.598,0.707 -0.504,-0.285 -1.132,-0.539 -1.871,-0.761 -1.777,-0.524 -3.961,-0.543 -5.515,0.234 -0.856,0.426 -1.43,1.078 -1.707,1.938 l -0.137,0.421 8.754,1.344 c 0.679,0.106 1.211,0.34 1.574,0.696 0.352,0.339 0.527,0.851 0.527,1.527 0,1.004 -0.187,1.941 -0.558,2.793 -0.367,0.844 -0.891,1.582 -1.555,2.187 -0.672,0.61 -1.48,1.098 -2.402,1.446 -0.93,0.351 -1.973,0.531 -3.114,0.531 z m -3.543,-7.41 0.032,0.476 c 0.023,0.403 0.105,0.801 0.238,1.188 0.137,0.402 0.352,0.769 0.625,1.094 0.285,0.324 0.648,0.597 1.086,0.804 0.449,0.207 0.969,0.313 1.562,0.313 0.938,0 1.664,-0.274 2.168,-0.813 0.477,-0.515 0.754,-1.051 0.836,-1.586 l 0.055,-0.367 z m 4.274,15.816 -4.473,-3.351 c -0.265,-0.196 -0.453,-0.403 -0.554,-0.618 -0.114,-0.23 -0.168,-0.449 -0.168,-0.671 0,-0.454 0.195,-0.879 0.597,-1.293 0.383,-0.395 0.832,-0.625 1.367,-0.704 l 4.235,2.297 c 0.668,0.364 1.148,0.731 1.429,1.094 0.262,0.336 0.391,0.754 0.391,1.274 0,0.535 -0.215,0.984 -0.66,1.375 -0.434,0.382 -1.16,0.582 -2.164,0.597" /><path
           inkscape:connector-curvature="0"
           id="path60"
           style="fill:#ffffff;fill-opacity:1;fill-rule:nonzero;stroke:none"
           d="m 306.363,128.41 2.137,-3.129 c 0.453,-0.672 0.93,-1.242 1.41,-1.703 0.438,-0.422 1.024,-0.637 1.785,-0.656 0.68,0 1.258,0.215 1.75,0.664 0.465,0.418 0.746,0.973 0.868,1.695 l -4.5,6.102 2.417,2.789 0.864,1.125 c 0.238,0.308 0.429,0.59 0.582,0.832 0.14,0.226 0.246,0.445 0.316,0.664 0.071,0.203 0.102,0.437 0.102,0.695 0,0.625 -0.293,1.117 -0.899,1.496 -0.617,0.383 -1.468,0.594 -2.527,0.614 l -3.797,-5.282 -2.465,3.329 c -0.476,0.648 -0.914,1.152 -1.297,1.5 -0.328,0.304 -0.82,0.457 -1.461,0.457 -0.679,0 -1.234,-0.235 -1.691,-0.711 -0.437,-0.461 -0.75,-1.063 -0.922,-1.789 l 4.594,-5.532 -2.899,-3.457 c -0.617,-0.726 -1.05,-1.297 -1.292,-1.699 -0.223,-0.371 -0.333,-0.789 -0.333,-1.277 0,-0.602 0.247,-1.094 0.75,-1.504 0.524,-0.426 1.321,-0.645 2.368,-0.645 0.082,0 0.183,0.008 0.3,0.02 0.071,0.004 0.137,0.008 0.2,0.012 l 3.64,5.39" /><path
           inkscape:connector-curvature="0"
           id="path62"
           style="fill:#ffffff;fill-opacity:1;fill-rule:nonzero;stroke:none"
           d="m 316.977,139.18 v -13.766 c 0,-0.527 0.066,-0.949 0.191,-1.262 0.121,-0.293 0.285,-0.519 0.504,-0.687 0.223,-0.172 0.492,-0.285 0.828,-0.34 0.73,-0.133 1.738,-0.137 2.66,0.016 0.309,0.05 0.567,0.093 0.778,0.132 v 13.766 c 0,0.524 -0.067,0.945 -0.192,1.262 -0.121,0.297 -0.289,0.519 -0.504,0.687 -0.219,0.172 -0.496,0.282 -0.824,0.344 -0.742,0.129 -1.75,0.137 -2.664,-0.019 -0.309,-0.051 -0.566,-0.094 -0.777,-0.133" /><path
           inkscape:connector-curvature="0"
           id="path64"
           style="fill:#ffffff;fill-opacity:1;fill-rule:nonzero;stroke:none"
           d="m 319.457,147.145 c -0.84,0 -1.492,-0.258 -1.992,-0.786 -0.508,-0.527 -0.758,-1.168 -0.758,-1.953 0,-0.781 0.25,-1.422 0.754,-1.953 0.504,-0.527 1.156,-0.781 1.996,-0.781 0.84,0 1.492,0.254 1.992,0.781 0.508,0.531 0.754,1.172 0.754,1.953 0,0.785 -0.246,1.426 -0.75,1.953 -0.504,0.528 -1.156,0.786 -1.996,0.786" /><path
           inkscape:connector-curvature="0"
           id="path66"
           style="fill:#ffffff;fill-opacity:1;fill-rule:nonzero;stroke:none"
           d="m 333.594,139.879 c -1.164,0 -2.285,-0.18 -3.328,-0.535 -1.032,-0.348 -1.957,-0.879 -2.743,-1.582 -0.789,-0.699 -1.418,-1.602 -1.875,-2.684 -0.46,-1.094 -0.695,-2.387 -0.695,-3.848 0,-1.261 0.219,-2.421 0.649,-3.457 0.421,-1.031 1.031,-1.925 1.808,-2.656 0.778,-0.734 1.727,-1.312 2.817,-1.719 1.097,-0.406 2.339,-0.613 3.703,-0.613 1.468,0 2.629,0.242 3.441,0.723 0.758,0.449 1.129,1.062 1.129,1.871 0,0.469 -0.098,0.851 -0.289,1.176 -0.164,0.281 -0.41,0.554 -0.727,0.808 -0.347,-0.156 -0.73,-0.304 -1.148,-0.437 -0.523,-0.176 -1.152,-0.262 -1.867,-0.262 -1.239,0 -2.305,0.395 -3.168,1.168 -0.875,0.785 -1.321,1.965 -1.321,3.496 0,0.762 0.125,1.442 0.368,2.02 0.242,0.57 0.57,1.058 0.976,1.457 0.41,0.39 0.895,0.691 1.446,0.894 1.14,0.418 2.507,0.371 3.601,0.024 0.434,-0.141 0.824,-0.285 1.164,-0.438 0.176,0.207 0.328,0.445 0.465,0.703 0.172,0.325 0.262,0.68 0.262,1.051 0,0.82 -0.375,1.477 -1.149,2.004 -0.804,0.555 -1.988,0.836 -3.519,0.836" /><path
           inkscape:connector-curvature="0"
           id="path68"
           style="fill:#ffffff;fill-opacity:1;fill-rule:nonzero;stroke:none"
           d="m 348.676,139.879 c -1.278,0 -2.442,-0.199 -3.465,-0.598 -1.023,-0.394 -1.91,-0.965 -2.645,-1.699 -0.734,-0.734 -1.312,-1.637 -1.714,-2.684 -0.407,-1.062 -0.614,-2.261 -0.614,-3.57 0,-1.328 0.207,-2.539 0.614,-3.601 0.402,-1.047 0.98,-1.954 1.714,-2.684 0.731,-0.73 1.622,-1.301 2.645,-1.695 1.023,-0.399 2.187,-0.598 3.465,-0.598 1.273,0 2.441,0.188 3.469,0.563 1.019,0.371 1.906,0.925 2.64,1.644 0.731,0.719 1.309,1.625 1.711,2.688 0.41,1.066 0.617,2.308 0.617,3.683 0,1.289 -0.207,2.477 -0.617,3.535 -0.402,1.051 -0.98,1.953 -1.715,2.688 -0.73,0.73 -1.625,1.308 -2.644,1.711 -1.028,0.41 -2.192,0.617 -3.461,0.617 z m 0.031,-13.285 c -1.066,0 -1.914,0.429 -2.516,1.285 -0.57,0.812 -0.859,1.973 -0.859,3.449 0,1.457 0.281,2.606 0.84,3.418 0.59,0.852 1.43,1.289 2.504,1.289 1.07,0 1.914,-0.437 2.504,-1.289 0.554,-0.812 0.84,-1.961 0.84,-3.418 0,-1.449 -0.278,-2.605 -0.821,-3.422 -0.578,-0.871 -1.414,-1.312 -2.492,-1.312" /><g
           id="g70"><g
             clip-path="url(#clipPath76)"
             id="g72"><path
               inkscape:connector-curvature="0"
               id="path84"
               style="fill:url(#linearGradient82);fill-opacity:1;fill-rule:nonzero;stroke:none"
               d="m 159.441,185.539 c 0,-8.379 -3.839,-11.535 -8.859,-14.32 -8.484,-4.52 -21.75,-7.637 -36.223,-7.637 -45.7926,0 -66.4645,27.781 -66.4645,59.957 0,36.609 27.043,62.055 66.8515,62.055 16.031,0 30.301,-3.531 37.156,-12.735 3.942,-5.293 4.055,-16.394 -5.754,-22.589 -8.765,4.851 -17.96,8.402 -28.32,8.402 -30.3436,0 -35.2421,-23.231 -35.2538,-34.563 -0.0273,-18.718 9.3164,-28.187 19.8438,-31.793 11.496,-3.933 21.223,-1.48 24.852,0.477 v 17.949 h -20.614 c -0.773,1.403 -4.109,8.293 -3.027,16.34 0.555,4.129 3.137,9.441 11.117,9.441 h 32.563 c 9.004,0 12.132,-6.062 12.132,-12.031 v -38.953" /></g></g><g
           id="g86"><g
             clip-path="url(#clipPath92)"
             id="g88"><path
               inkscape:connector-curvature="0"
               id="path100"
               style="fill:url(#linearGradient98);fill-opacity:1;fill-rule:nonzero;stroke:none"
               d="m 380.543,224.301 c 0,-33.985 -27.859,-61.528 -62.23,-61.528 -34.372,0 -62.231,27.543 -62.231,61.528 0,33.984 27.859,61.531 62.231,61.531 34.371,0 62.23,-27.547 62.23,-61.531 z m -62.23,27.183 c -15.493,0 -28.051,-12.265 -28.051,-27.386 0,-15.125 12.558,-27.387 28.051,-27.387 15.492,0 28.05,12.262 28.05,27.387 0,15.121 -12.558,27.386 -28.05,27.386" /></g></g><g
           clip-path="url(#clipPath108)"
           id="g104"
           style=""><path
             inkscape:connector-curvature="0"
             id="path116"
             style="fill:url(#linearGradient114);fill-opacity:1;fill-rule:nonzero;stroke:none"
             d="m 193.875,165.551 c 7.895,-1.723 19.852,-3 26.988,0.058 4.438,1.903 6.817,5.957 6.817,13.246 0,22.032 0,76.848 0,76.848 0,0 12.187,0 21.781,0 13.367,0 13.523,15.426 12.5,27.27 0,0 -72.57,0 -86.723,0 -14.074,0 -15.957,-13.246 -14.152,-27.27 h 32.789 v -90.152" /></g><g
           id="g118"><g
             clip-path="url(#clipPath124)"
             id="g120"><path
               inkscape:connector-curvature="0"
               id="path134"
               style="fill:url(#linearGradient132);fill-opacity:1;fill-rule:nonzero;stroke:none"
               d="m 193.875,165.551 c 7.895,-1.723 19.852,-3 26.988,0.058 4.438,1.903 6.817,5.957 6.817,13.246 0,3.227 0,0.59 0,4.954 -9.192,0 -29.461,12.902 -33.805,25.695 v -43.953" /></g></g><g
           id="g136"><g
             clip-path="url(#clipPath142)"
             id="g138"><path
               inkscape:connector-curvature="0"
               id="path152"
               style="fill:url(#linearGradient150);fill-opacity:1;fill-rule:nonzero;stroke:none"
               d="m 56.2734,255.715 c -5.414,-9.16 -8.3789,-20.055 -8.3789,-32.176 0,-32.176 20.6719,-59.957 66.4645,-59.957 14.473,0 27.739,3.117 36.223,7.637 0.801,0.445 1.57,0.898 2.301,1.383 -47.102,4.714 -85.5158,38.582 -96.6096,83.113" /></g></g><g
           id="g154"><g
             clip-path="url(#clipPath160)"
             id="g156"><path
               inkscape:connector-curvature="0"
               id="path170"
               style="fill:url(#linearGradient168);fill-opacity:1;fill-rule:nonzero;stroke:none"
               d="m 345.461,217.176 c 3.867,17.976 -7.438,33.187 -27.148,34.308 16.558,10.403 51.246,0 56.703,-27.214 2.39,-11.934 1.574,-22.477 -1.332,-28.075 -18.36,-35.343 -64.614,-44.117 -94.582,-19.672 35.929,0.04 61.574,18.418 66.359,40.653" /></g></g></g></g></g></svg>
